<?xml version="1.0" standalone="no"?>
<!DOCTYPE svg PUBLIC "-//W3C//DTD SVG 20010904//EN"
 "http://www.w3.org/TR/2001/REC-SVG-20010904/DTD/svg10.dtd">
<svg version="1.0" xmlns="http://www.w3.org/2000/svg"
 width="768.000000pt" height="316.000000pt" viewBox="0 0 768.000000 316.000000"
 preserveAspectRatio="xMidYMid meet">

<g transform="translate(0.000000,316.000000) scale(0.100000,-0.100000)"
fill="#000000" stroke="none">
<path d="M381 3149 c-176 -34 -338 -199 -371 -378 -6 -34 -10 -477 -10 -1195
0 -1241 -1 -1205 56 -1318 35 -69 135 -168 204 -201 126 -61 -123 -57 3617
-55 l3418 3 59 23 c163 62 273 184 311 344 13 54 15 233 15 1204 0 718 -4
1161 -10 1195 -34 183 -195 344 -379 379 -67 13 -6845 12 -6910 -1z m499
-1107 l5 -354 80 84 c44 46 159 166 255 268 96 101 213 224 259 272 l84 88
164 0 c113 0 163 -3 163 -11 0 -6 -62 -75 -138 -153 -362 -371 -594 -616 -590
-625 1 -5 161 -180 353 -387 193 -208 365 -395 383 -416 l34 -38 -174 0 -173
0 -139 148 c-77 81 -217 228 -311 327 -94 99 -190 200 -213 225 l-41 45 -1
-372 0 -373 -145 0 -145 0 0 815 0 816 143 -3 142 -3 5 -353z m1540 18 l0
-340 395 0 395 0 2 338 3 337 135 0 135 0 3 -812 2 -813 -140 0 -140 0 0 350
0 350 -395 0 -395 0 0 -350 0 -350 -140 0 -140 0 0 808 c0 445 3 812 7 815 3
4 66 7 140 7 l133 0 0 -340z m2690 329 c69 -15 129 -62 163 -128 l27 -55 0
-625 0 -626 -125 130 -124 130 -1 406 c0 404 0 406 -22 439 -13 18 -36 43 -51
54 -28 20 -41 21 -430 24 -268 2 -414 0 -439 -8 -43 -12 -88 -56 -105 -102 -8
-23 -12 -153 -12 -438 -1 -373 1 -408 18 -445 24 -52 56 -80 106 -94 25 -7
174 -11 410 -11 l370 0 118 -118 c64 -64 117 -121 117 -125 0 -4 -273 -6 -607
-5 l-608 3 -46 27 c-25 15 -57 42 -70 60 -56 76 -54 47 -57 687 -3 666 -3 667
65 742 41 45 81 69 133 80 60 12 1113 10 1170 -2z m1370 -16 c316 -75 557
-367 587 -711 l6 -73 -124 3 -124 3 -7 63 c-13 119 -60 220 -143 310 -66 71
-130 114 -210 142 -289 100 -605 -87 -670 -397 -11 -53 -15 -162 -15 -495 l0
-428 -25 0 c-68 0 -154 60 -193 133 l-27 52 -3 274 c-4 338 7 481 49 605 42
128 98 217 198 317 193 193 439 264 701 202z m-1721 -508 c48 -24 52 -48 49
-325 l-3 -255 -240 -3 c-165 -2 -249 1 -268 9 -55 23 -57 32 -57 292 l0 239
29 29 29 29 217 0 c169 0 222 -3 244 -15z m1877 -607 c162 -169 402 -424 429
-455 l27 -33 -174 0 -174 0 -262 279 c-144 154 -262 282 -262 285 0 4 76 6
168 6 l168 0 80 -82z"/>
</g>
</svg>
